<svg width="160" height="160" viewBox="0 0 160 160" fill="none" xmlns="http://www.w3.org/2000/svg">
<path d="M122.522 32.9504L127.046 37.4784L79.0783 85.4464L74.5535 80.9216L122.522 32.9504Z" fill="#333333"/>
<path d="M128 64H121.6V38.4H96V32H128V64Z" fill="#333333"/>
<path d="M112 121.6H48C42.56 121.6 38.4 117.44 38.4 112V48C38.4 42.56 42.56 38.4 48 38.4H83.2V44.8H48C46.08 44.8 44.8 46.08 44.8 48V112C44.8 113.92 46.08 115.2 48 115.2H112C113.92 115.2 115.2 113.92 115.2 112V76.8H121.6V112C121.6 117.44 117.44 121.6 112 121.6Z" fill="#333333"/>
</svg>
